<?xml version="1.0" encoding="UTF-8"?>
<svg width="14px" height="44px" viewBox="0 0 14 44" version="1.1" xmlns="http://www.w3.org/2000/svg" xmlns:xlink="http://www.w3.org/1999/xlink">
    <title>apple_logo</title>
    <g id="apple_logo" stroke="none" fill="none" fill-rule="nonzero">
        <path d="M13.0729,17.6825 C12.0140808,18.3307456 11.3626498,19.477586 11.3481,20.719 C11.3523097,22.1239584 12.1931595,23.3913097 13.486,23.9413 C13.2366221,24.7458953 12.8675543,25.5083702 12.3912,26.2031 C11.7096,27.1843 10.9969,28.1654 9.9125,28.1654 C8.8281,28.1654 8.5492,27.5354 7.2995,27.5354 C6.0808,27.5354 5.647,28.1861 4.6555,28.1861 C3.664,28.1861 2.9721,27.2772 2.1768,26.1618 C1.12626849,24.5992409 0.548909787,22.7667485 0.514,20.8842 C0.514,17.7858 2.528,16.1437 4.5109,16.1437 C5.5644,16.1437 6.4423,16.8356 7.1033,16.8356 C7.7333,16.8356 8.7145,16.1023 9.9125,16.1023 C11.1633476,16.070027 12.3482099,16.6624581 13.0729,17.6825 L13.0729,17.6825 Z M9.3445,14.7907 C9.87260029,14.1694617 10.1715461,13.3858275 10.1914,12.5707 C10.1922941,12.4632424 10.1819039,12.3559878 10.1604,12.2507 C9.2532574,12.3393136 8.41440371,12.7716748 7.8159,13.4591 C7.28270735,14.0555838 6.97250143,14.8182897 6.938,15.6176 C6.93840028,15.7148074 6.94878816,15.8117163 6.969,15.9068 C7.04051486,15.9203184 7.11311911,15.9272474 7.1859,15.9275 C8.03078134,15.8602714 8.81107719,15.4493382 9.3445,14.7907 L9.3445,14.7907 Z" id="Forma" fill="#FFFFFF"></path>
    </g>
</svg>