<?xml version="1.0" encoding="UTF-8"?>
<svg width="16px" height="44px" viewBox="0 0 16 44" version="1.1" xmlns="http://www.w3.org/2000/svg" xmlns:xlink="http://www.w3.org/1999/xlink">
    <title>search</title>
    <g id="search" stroke="none" fill="none" transform="translate(0.5385, 0)" fill-rule="nonzero">
        <path d="M14.298,27.202 L10.428,23.332 C11.129,22.403 11.55,21.251 11.55,20 C11.55,16.94 9.061,14.45 6,14.45 C2.94,14.45 0.45,16.94 0.45,20 C0.45,23.061 2.94,25.55 6,25.55 C7.251,25.55 8.403,25.129 9.332,24.428 L13.202,28.298 C13.353,28.449 13.552,28.526 13.75,28.526 C13.948,28.526 14.146,28.45 14.298,28.298 C14.601,27.995 14.601,27.505 14.298,27.202 Z M1.55,20 C1.55,17.546 3.547,15.55 6,15.55 C8.454,15.55 10.45,17.547 10.45,20 C10.45,22.453 8.454,24.45 6,24.45 C3.546,24.45 1.55,22.454 1.55,20 Z" id="Forma" fill="#FFFFFF"></path>
    </g>
</svg>