<?xml version="1.0" encoding="UTF-8"?>
<svg width="14px" height="44px" viewBox="0 0 14 44" version="1.1" xmlns="http://www.w3.org/2000/svg" xmlns:xlink="http://www.w3.org/1999/xlink">
    <title>shop</title>
    <g id="shop" stroke="none" fill="none" fill-rule="nonzero">
        <path d="M11.3535,16.0283 L10.333,16.0283 C10.1069265,14.3523815 8.69084518,13.0927361 7,13.0635 C5.30915482,13.0927361 3.89307346,14.3523815 3.667,16.0283 L2.647,16.0283 C1.47844526,16.0290716 0.531213313,16.9759456 0.53,18.1445 L0.53,25.86 C0.531047087,27.028392 1.47780832,27.9753769 2.6462,27.9767 L11.3532,27.9767 C12.521826,27.9757076 13.4689524,27.028626 13.47,25.86 L13.47,18.1445 C13.4687871,16.9761407 12.5218595,16.0293473 11.3535,16.0283 L11.3535,16.0283 Z M7,14.1631 C8.08650491,14.1867174 9.01058295,14.9623408 9.2222,16.0283 L4.7778,16.0283 C4.98941705,14.9623408 5.91349509,14.1867174 7,14.1631 L7,14.1631 Z M12.37,25.86 C12.3693943,26.4212826 11.9146822,26.8762183 11.3534,26.8771 L2.6465,26.8771 C2.08525682,26.8761633 1.63060555,26.4212436 1.63,25.86 L1.63,18.1445 C1.63066125,17.5833214 2.08542145,17.1285612 2.6466,17.1279 L11.3536,17.1279 C11.9147004,17.1286714 12.369339,17.5833994 12.37,18.1445 L12.37,25.86 Z" id="Forma" fill="#FFFFFF"></path>
    </g>
</svg>